<?xml version="1.0" encoding="UTF-8"?>
<svg width="36px" height="36px" viewBox="0 0 36 36" version="1.1" xmlns="http://www.w3.org/2000/svg" xmlns:xlink="http://www.w3.org/1999/xlink">
    <!-- Generator: Sketch 58 (84663) - https://sketch.com -->
    <title>comments_normal_light</title>
    <desc>Created with Sketch.</desc>
    <g id="light" stroke="none" stroke-width="1" fill="none" fill-rule="evenodd">
        <g id="按钮规范new" transform="translate(-726.000000, -51.000000)">
            <g id="批注备份-2" transform="translate(726.000000, 51.000000)">
                <rect id="Rectangle-6" fill-opacity="0" fill="#D8D8D8" x="6" y="6" width="24" height="24"></rect>
                <path d="M17.1000563,11.999812 C17.0344436,12.3229802 17,12.6574677 17,13 L17,13 L12,13 L12,25 L22,25 L22,18 C22.342885,18 22.6777087,17.9654854 23.0011864,17.8997409 L23,26 L11,26 L11,12 L17.1000563,11.999812 Z M20,22 L20,23 L13,23 L13,22 L20,22 Z M17,19 L17,20 L13,20 L13,19 L17,19 Z M23,10 C24.4329966,10 26,11.5670034 26,14 C26,15.4329966 24.4329966,17 23,17 C20.5670034,17 19,15.4329966 19,14 C19,11.5670034 20.5670034,10 23,10 Z M15,16 L15,17 L13,17 L13,16 L15,16 Z M23,11 C21.1192881,11 20,12.1192881 20,14 C20,14.8807119 21.1192881,16 23,16 C23.8807119,16 25,14.8807119 25,14 C25,12.1192881 23.8807119,11 23,11 Z" id="批注" fill="#536076" fill-rule="nonzero"></path>
            </g>
        </g>
    </g>
</svg>