<?xml version="1.0" encoding="UTF-8"?>
<svg width="36px" height="36px" viewBox="0 0 36 36" version="1.1" xmlns="http://www.w3.org/2000/svg" xmlns:xlink="http://www.w3.org/1999/xlink">
    <!-- Generator: Sketch 58 (84663) - https://sketch.com -->
    <title>comments_normal_light</title>
    <desc>Created with Sketch.</desc>
    <g id="light" stroke="none" stroke-width="1" fill="none" fill-rule="evenodd">
        <g id="按钮规范new" transform="translate(-726.000000, -51.000000)">
            <g id="批注备份-2" transform="translate(726.000000, 51.000000)">
                <rect id="Rectangle-6" fill-opacity="0" fill="#D8D8D8" x="6" y="6" width="24" height="24"></rect>
                <path d="M17.4158423,11.5004611 C17.2772427,11.8177692 17.1706228,12.1522441 17.1000563,12.499812 L12,12.5 L12,24.5 L22,24.5 L22,18.5 C22.3425323,18.5 22.6770198,18.4655564 23.000188,18.3999437 L23,25.5 L11,25.5 L11,11.5 L17.4158423,11.5004611 Z M20,21.5 L20,22.5 L13,22.5 L13,21.5 L20,21.5 Z M17,18.5 L17,19.5 L13,19.5 L13,18.5 L17,18.5 Z M22,10 C23.9329966,10 25.5,11.5670034 25.5,13.5 C25.5,15.4329966 23.9329966,17 22,17 C20.0670034,17 18.5,15.4329966 18.5,13.5 C18.5,11.5670034 20.0670034,10 22,10 Z M15,15.5 L15,16.5 L13,16.5 L13,15.5 L15,15.5 Z M22,11 C20.6192881,11 19.5,12.1192881 19.5,13.5 C19.5,14.8807119 20.6192881,16 22,16 C23.3807119,16 24.5,14.8807119 24.5,13.5 C24.5,12.1192881 23.3807119,11 22,11 Z" id="批注" fill="#C5CFE0" fill-rule="nonzero"></path>
            </g>
        </g>
    </g>
</svg>