<?xml version="1.0" encoding="UTF-8"?>
<svg width="36px" height="36px" viewBox="0 0 36 36" version="1.1" xmlns="http://www.w3.org/2000/svg" xmlns:xlink="http://www.w3.org/1999/xlink">
    <!-- Generator: Sketch 58 (84663) - https://sketch.com -->
    <title>magnifier_normal_light</title>
    <desc>Created with Sketch.</desc>
    <g id="light" stroke="none" stroke-width="1" fill="none" fill-rule="evenodd">
        <g id="按钮规范new" transform="translate(-334.000000, -49.000000)" fill="#C5CFE0">
            <g id="编组" transform="translate(334.000000, 49.000000)">
                <path d="M16.0554564,23.8054564 C19.9214496,23.8054564 23.0554564,20.6714496 23.0554564,16.8054564 C23.0554564,12.9394631 19.9214496,9.80545635 16.0554564,9.80545635 C12.1894631,9.80545635 9.05545635,12.9394631 9.05545635,16.8054564 C9.05545635,20.6714496 12.1894631,23.8054564 16.0554564,23.8054564 Z M16.0554564,22.8054564 C12.7417479,22.8054564 10.0554564,20.1191649 10.0554564,16.8054564 C10.0554564,13.4917479 12.7417479,10.8054564 16.0554564,10.8054564 C19.3691649,10.8054564 22.0554564,13.4917479 22.0554564,16.8054564 C22.0554564,20.1191649 19.3691649,22.8054564 16.0554564,22.8054564 Z" id="椭圆形" fill-rule="nonzero" transform="translate(16.055456, 16.805456) rotate(-45.000000) translate(-16.055456, -16.805456) "></path>
                <rect id="矩形" transform="translate(22.772971, 23.522971) rotate(-315.000000) translate(-22.772971, -23.522971) " x="19.7729708" y="23.0229708" width="6" height="1"></rect>
                <rect id="矩形" x="13" y="16.5" width="6" height="1"></rect>
                <rect id="矩形备份" transform="translate(16.000000, 17.000000) rotate(-90.000000) translate(-16.000000, -17.000000) " x="13" y="16.5" width="6" height="1"></rect>
            </g>
        </g>
    </g>
</svg>