<?xml version="1.0" encoding="UTF-8"?>
<svg width="36px" height="36px" viewBox="0 0 36 36" version="1.1" xmlns="http://www.w3.org/2000/svg" xmlns:xlink="http://www.w3.org/1999/xlink">
    <!-- Generator: Sketch 56.2 (81672) - https://sketch.com -->
    <title>magnifier_checked_light</title>
    <desc>Created with Sketch.</desc>
    <g id="page" stroke="none" stroke-width="1" fill="none" fill-rule="evenodd">
        <g id="按钮规范" transform="translate(-334.000000, -318.000000)" fill="#FFFFFF">
            <g id="形状结合-2" transform="translate(334.000000, 318.000000)">
                <path d="M22.4461305,22.1448358 C19.7288576,24.50385 15.6096188,24.391494 13.0258927,21.8077678 C10.3247024,19.1065776 10.3247024,14.7270829 13.0258927,12.0258927 C15.7270829,9.32470244 20.1065776,9.32470244 22.8077678,12.0258927 C25.391494,14.6096188 25.50385,18.7288576 23.1448358,21.4461305 L27,25.3012946 L26.3012946,26 L22.4461305,22.1448358 Z M17.3679735,16.6150031 L14.897677,16.6150031 L14.897677,17.6031217 L17.3679735,17.6031217 L17.3679735,20.0734183 L18.3560921,20.0734183 L18.3560921,17.6031217 L20.8263886,17.6031217 L20.8263886,16.6150031 L18.3560921,16.6150031 L18.3560921,14.1447066 L17.3679735,14.1447066 L17.3679735,16.6150031 Z" id="形状结合"></path>
            </g>
        </g>
    </g>
</svg>