<?xml version="1.0" encoding="UTF-8"?>
<svg width="25px" height="25px" viewBox="0 0 25 25" version="1.1" xmlns="http://www.w3.org/2000/svg" xmlns:xlink="http://www.w3.org/1999/xlink">
    <title>apps/128/deepin-reader</title>
    <defs>
        <filter x="-10.3%" y="-9.5%" width="120.5%" height="123.9%" filterUnits="objectBoundingBox" id="filter-1">
            <feOffset dx="0" dy="1" in="SourceAlpha" result="shadowOffsetOuter1"></feOffset>
            <feGaussianBlur stdDeviation="0.5" in="shadowOffsetOuter1" result="shadowBlurOuter1"></feGaussianBlur>
            <feColorMatrix values="0 0 0 0 0   0 0 0 0 0   0 0 0 0 0  0 0 0 0.20036604 0" type="matrix" in="shadowBlurOuter1" result="shadowMatrixOuter1"></feColorMatrix>
            <feMerge>
                <feMergeNode in="shadowMatrixOuter1"></feMergeNode>
                <feMergeNode in="SourceGraphic"></feMergeNode>
            </feMerge>
        </filter>
        <linearGradient x1="64.1867976%" y1="18.5365949%" x2="92.7708671%" y2="83.8286002%" id="linearGradient-2">
            <stop stop-color="#FFFDFD" offset="0%"></stop>
            <stop stop-color="#F2EEEE" offset="100%"></stop>
        </linearGradient>
        <linearGradient x1="50%" y1="0%" x2="50%" y2="100%" id="linearGradient-3">
            <stop stop-color="#FE8B45" offset="0%"></stop>
            <stop stop-color="#F7B338" offset="99.6964738%"></stop>
        </linearGradient>
        <path d="M4.125,18.7142745 L4.125,20.788126 C4.125,20.8836299 4.20369995,20.9610512 4.30078125,20.9610512 C4.31681363,20.9610512 4.33277064,20.9588935 4.34820845,20.9546381 L5.53125,20.6285363 L6.71386324,20.9576985 C6.80727759,20.983699 6.90443053,20.9302796 6.9308604,20.838383 C6.9352657,20.8230657 6.9375,20.8072235 6.9375,20.791305 L6.9375,18.7142745 L4.125,18.7142745 Z" id="path-4"></path>
        <filter x="-35.6%" y="-44.4%" width="171.1%" height="188.9%" filterUnits="objectBoundingBox" id="filter-5">
            <feOffset dx="0" dy="-1" in="SourceAlpha" result="shadowOffsetInner1"></feOffset>
            <feComposite in="shadowOffsetInner1" in2="SourceAlpha" operator="arithmetic" k2="-1" k3="1" result="shadowInnerInner1"></feComposite>
            <feColorMatrix values="0 0 0 0 0   0 0 0 0 0   0 0 0 0 0  0 0 0 0.2 0" type="matrix" in="shadowInnerInner1" result="shadowMatrixInner1"></feColorMatrix>
            <feGaussianBlur stdDeviation="0.5" in="SourceAlpha" result="shadowBlurInner2"></feGaussianBlur>
            <feOffset dx="0" dy="1" in="shadowBlurInner2" result="shadowOffsetInner2"></feOffset>
            <feComposite in="shadowOffsetInner2" in2="SourceAlpha" operator="arithmetic" k2="-1" k3="1" result="shadowInnerInner2"></feComposite>
            <feColorMatrix values="0 0 0 0 0   0 0 0 0 0   0 0 0 0 0  0 0 0 0.08 0" type="matrix" in="shadowInnerInner2" result="shadowMatrixInner2"></feColorMatrix>
            <feMerge>
                <feMergeNode in="shadowMatrixInner1"></feMergeNode>
                <feMergeNode in="shadowMatrixInner2"></feMergeNode>
            </feMerge>
        </filter>
        <linearGradient x1="50%" y1="0%" x2="50%" y2="100%" id="linearGradient-6">
            <stop stop-color="#000000" stop-opacity="0.04" offset="0%"></stop>
            <stop stop-color="#000000" stop-opacity="0.07" offset="100%"></stop>
        </linearGradient>
        <linearGradient x1="50%" y1="39.1501339%" x2="100%" y2="39.1501339%" id="linearGradient-7">
            <stop stop-color="#FFFFFF" offset="0%"></stop>
            <stop stop-color="#E3E3E3" offset="100%"></stop>
        </linearGradient>
        <path d="M2.78571429,16.3237656 L2.78571429,17.880608 L2.78571429,17.880608 C5.28856872,18.0927503 6.63511637,18.1988215 6.82535726,18.1988215 C9.16978665,18.1988215 10.2163903,17.7675729 10.4699046,17.6805132 C10.6155556,17.630495 11.0613338,17.436843 11.2839101,17.2211152 C11.4487412,17.0613558 11.5143599,16.9058058 11.5285239,16.8572261 C11.6112524,16.5734848 11.580658,16.2818846 11.580658,15.9884978 C11.580658,14.2491033 11.640249,10.1465156 11.580658,6.54119606 C11.580658,6.15833318 11.580658,4.64243727 11.580658,1.99350832 C11.4670914,1.37445649 11.0255791,0.860874958 10.256121,0.452763741 C9.49139018,0.0471598019 8.21709847,-0.0859269161 6.43324589,0.0535035874 L6.43324072,0.0534357584 C6.1878408,0.0721506121 5.9986719,0.277409178 6.0000069,0.523518066 L6,1.12477609 L6,1.12477609 L2.78571429,3.65750647 L2.78571429,16.3237656 Z" id="path-8"></path>
        <filter x="-11.3%" y="-11.0%" width="145.3%" height="122.0%" filterUnits="objectBoundingBox" id="filter-9">
            <feOffset dx="1" dy="0" in="SourceAlpha" result="shadowOffsetOuter1"></feOffset>
            <feGaussianBlur stdDeviation="0.5" in="shadowOffsetOuter1" result="shadowBlurOuter1"></feGaussianBlur>
            <feColorMatrix values="0 0 0 0 0   0 0 0 0 0   0 0 0 0 0  0 0 0 0.06 0" type="matrix" in="shadowBlurOuter1"></feColorMatrix>
        </filter>
        <filter x="-4.3%" y="-2.8%" width="108.6%" height="111.3%" filterUnits="objectBoundingBox" id="filter-10">
            <feOffset dx="0" dy="1" in="SourceAlpha" result="shadowOffsetOuter1"></feOffset>
            <feColorMatrix values="0 0 0 0 0   0 0 0 0 0   0 0 0 0 0  0 0 0 0.074027535 0" type="matrix" in="shadowOffsetOuter1" result="shadowMatrixOuter1"></feColorMatrix>
            <feMerge>
                <feMergeNode in="shadowMatrixOuter1"></feMergeNode>
                <feMergeNode in="SourceGraphic"></feMergeNode>
            </feMerge>
        </filter>
        <radialGradient cx="19.9526148%" cy="2.93103031%" fx="19.9526148%" fy="2.93103031%" r="153.746949%" gradientTransform="translate(0.1995, 0.0293), scale(1, 0.6575), rotate(69.2672), translate(-0.1995, -0.0293)" id="radialGradient-11">
            <stop stop-color="#FF5E4D" offset="0%"></stop>
            <stop stop-color="#BA0E55" offset="100%"></stop>
        </radialGradient>
        <path d="M3.77306836,0 L6,0 C6.00001017,7.51608672 6.00001017,11.6711883 6,12.4653048 C6.00001525,13.6262879 7.72076726,13.8279189 8.02012714,13.8596106 C8.97138874,13.9603158 9.15335338,13.9810304 10.054861,14.1366414 C10.9563686,14.2922523 11.3919718,14.7331402 11.5143981,14.9537562 C11.6368243,15.1743721 11.6864216,15.8568286 11.0888408,16.4113621 C10.4912599,16.9658955 9.43278335,17.6284674 7.26295111,17.6284674 C6.74225291,17.6284674 5.48590008,17.6284674 3.49389264,17.6284674 L3,17.6284674 C1.34314575,17.6284674 0,16.2853216 -4.4408921e-16,14.6284674 L0,3 C0,1.34314575 1.34314575,0 3,0 L3.77306836,0 L3.77306836,0 Z" id="path-12"></path>
        <filter x="-8.6%" y="-5.7%" width="117.3%" height="111.3%" filterUnits="objectBoundingBox" id="filter-14">
            <feGaussianBlur stdDeviation="0.5" in="SourceAlpha" result="shadowBlurInner1"></feGaussianBlur>
            <feOffset dx="-1" dy="1" in="shadowBlurInner1" result="shadowOffsetInner1"></feOffset>
            <feComposite in="shadowOffsetInner1" in2="SourceAlpha" operator="arithmetic" k2="-1" k3="1" result="shadowInnerInner1"></feComposite>
            <feColorMatrix values="0 0 0 0 0   0 0 0 0 0   0 0 0 0 0  0 0 0 0.06 0" type="matrix" in="shadowInnerInner1"></feColorMatrix>
        </filter>
        <linearGradient x1="50%" y1="0%" x2="50%" y2="97.8637654%" id="linearGradient-15">
            <stop stop-color="#FFFFFF" stop-opacity="0.3" offset="0%"></stop>
            <stop stop-color="#000000" stop-opacity="0.2" offset="100%"></stop>
        </linearGradient>
        <linearGradient x1="41.0531845%" y1="55.3909977%" x2="100%" y2="55.3909977%" id="linearGradient-16">
            <stop stop-color="#6F0F0F" offset="0%"></stop>
            <stop stop-color="#5A0823" offset="100%"></stop>
        </linearGradient>
    </defs>
    <g id="apps/128/deepin-reader" stroke="none" fill="none" transform="translate(0.25, 0)">
        <g id="编组" filter="url(#filter-1)" stroke-width="1" fill-rule="evenodd" transform="translate(2.25, 1.5357)">
            <path d="M3.84702942,1.46427453 L15.6529706,1.46427453 C16.9906665,1.46427453 17.4757474,1.60355645 17.964789,1.86509878 C18.4538307,2.12664111 18.8376334,2.51044385 19.0991757,2.99948549 C19.3607181,3.48852714 19.5,3.97360801 19.5,5.31130395 L19.5,15.8047451 C19.5,17.142441 19.3607181,17.6275219 19.0991757,18.1165636 C18.8376334,18.6056052 18.4538307,18.9894079 17.964789,19.2509503 C17.4757474,19.5124926 16.9906665,19.6517745 15.6529706,19.6517745 L3.84702942,19.6517745 C2.50933348,19.6517745 2.02425261,19.5124926 1.53521097,19.2509503 C1.04616933,18.9894079 0.662366585,18.6056052 0.400824253,18.1165636 C0.139281921,17.6275219 5.75813397e-16,17.142441 2.17380675e-16,15.8047451 L0,5.31130395 C0,3.97360801 0.139281921,3.48852714 0.400824253,2.99948549 C0.662366585,2.51044385 1.04616933,2.12664111 1.53521097,1.86509878 C2.02425261,1.60355645 2.50933348,1.46427453 3.84702942,1.46427453 Z" id="矩形" fill-opacity="0.8" fill="#FFFFFF" opacity="0.400000006"></path>
            <path d="M3.84702942,2.02677453 L15.6529706,2.02677453 C16.9906665,2.02677453 17.4757474,2.16605645 17.964789,2.42759878 C18.4538307,2.68914111 18.8376334,3.07294385 19.0991757,3.56198549 C19.3607181,4.05102714 19.5,4.53610801 19.5,5.87380395 L19.5,16.3672451 C19.5,17.704941 19.3607181,18.1900219 19.0991757,18.6790636 C18.8376334,19.1681052 18.4538307,19.5519079 17.964789,19.8134503 C17.4757474,20.0749926 16.9906665,20.2142745 15.6529706,20.2142745 L3.84702942,20.2142745 C2.50933348,20.2142745 2.02425261,20.0749926 1.53521097,19.8134503 C1.04616933,19.5519079 0.662366585,19.1681052 0.400824253,18.6790636 C0.139281921,18.1900219 5.75813397e-16,17.704941 2.17380675e-16,16.3672451 L0,5.87380395 C0,4.53610801 0.139281921,4.05102714 0.400824253,3.56198549 C0.662366585,3.07294385 1.04616933,2.68914111 1.53521097,2.42759878 C2.02425261,2.16605645 2.50933348,2.02677453 3.84702942,2.02677453 Z" id="矩形" fill-opacity="0.8" fill="#FFFFFF" opacity="0.5"></path>
            <path d="M3.84702942,1.08927453 L15.6529706,1.08927453 C16.9906665,1.08927453 17.4757474,1.22855645 17.964789,1.49009878 C18.4538307,1.75164111 18.8376334,2.13544385 19.0991757,2.62448549 C19.3607181,3.11352714 19.5,3.59860801 19.5,4.93630395 L19.5,15.4297451 C19.5,16.767441 19.3607181,17.2525219 19.0991757,17.7415636 C18.8376334,18.2306052 18.4538307,18.6144079 17.964789,18.8759503 C17.4757474,19.1374926 16.9906665,19.2767745 15.6529706,19.2767745 L3.84702942,19.2767745 C2.50933348,19.2767745 2.02425261,19.1374926 1.53521097,18.8759503 C1.04616933,18.6144079 0.662366585,18.2306052 0.400824253,17.7415636 C0.139281921,17.2525219 5.75813397e-16,16.767441 2.17380675e-16,15.4297451 L0,4.93630395 C0,3.59860801 0.139281921,3.11352714 0.400824253,2.62448549 C0.662366585,2.13544385 1.04616933,1.75164111 1.53521097,1.49009878 C2.02425261,1.22855645 2.50933348,1.08927453 3.84702942,1.08927453 Z" id="矩形" fill-opacity="0.8" fill="#FFFFFF" opacity="0.5"></path>
            <path d="M3.84702942,1.08927453 L15.6529706,1.08927453 C16.9906665,1.08927453 17.4757474,1.22855645 17.964789,1.49009878 C18.4538307,1.75164111 18.8376334,2.13544385 19.0991757,2.62448549 C19.3607181,3.11352714 19.5,3.59860801 19.5,4.93630395 L19.5,14.8672451 C19.5,16.204941 19.3607181,16.6900219 19.0991757,17.1790636 C18.8376334,17.6681052 18.4538307,18.0519079 17.964789,18.3134503 C17.4757474,18.5749926 16.9906665,18.7142745 15.6529706,18.7142745 L3.84702942,18.7142745 C2.50933348,18.7142745 2.02425261,18.5749926 1.53521097,18.3134503 C1.04616933,18.0519079 0.662366585,17.6681052 0.400824253,17.1790636 C0.139281921,16.6900219 5.75813397e-16,16.204941 2.17380675e-16,14.8672451 L0,4.93630395 C0,3.59860801 0.139281921,3.11352714 0.400824253,2.62448549 C0.662366585,2.13544385 1.04616933,1.75164111 1.53521097,1.49009878 C2.02425261,1.22855645 2.50933348,1.08927453 3.84702942,1.08927453 Z" id="矩形" fill="url(#linearGradient-2)"></path>
            <g id="路径">
                <use fill="url(#linearGradient-3)" fill-rule="evenodd" xlink:href="#path-4"></use>
                <use fill="black" fill-opacity="1" filter="url(#filter-5)" xlink:href="#path-4"></use>
            </g>
            <path d="M5.1262294,5.21427453 L12.2511122,5.21427453 C12.354698,5.21427453 12.4386708,5.29824737 12.4386708,5.40183311 L12.4386708,9.15171594 C12.4386708,9.25530169 12.354698,9.33927453 12.2511122,9.33927453 L5.1262294,9.33927453 C5.02264366,9.33927453 4.93867082,9.25530169 4.93867082,9.15171594 L4.93867082,5.40183311 C4.93867082,5.29824737 5.02264366,5.21427453 5.1262294,5.21427453 Z M13.9387294,5.58927453 L16.7511122,5.58927453 C16.854698,5.58927453 16.9386708,5.67324737 16.9386708,5.77683311 L16.9386708,9.52671594 C16.9386708,9.63030169 16.854698,9.71427453 16.7511122,9.71427453 L13.9387294,9.71427453 C13.8351437,9.71427453 13.7511708,9.63030169 13.7511708,9.52671594 L13.7511708,5.77683311 C13.7511708,5.67324737 13.8351437,5.58927453 13.9387294,5.58927453 Z M5.3137294,10.2767745 L16.9386122,10.2767745 C17.042198,10.2767745 17.1261708,10.3607474 17.1261708,10.4643331 L17.1261708,11.0267159 C17.1261708,11.1303017 17.042198,11.2142745 16.9386122,11.2142745 L5.3137294,11.2142745 C5.21014366,11.2142745 5.12617082,11.1303017 5.12617082,11.0267159 L5.12617082,10.4643331 C5.12617082,10.3607474 5.21014366,10.2767745 5.3137294,10.2767745 Z M5.3137294,12.1517745 L7.18861223,12.1517745 C7.29219798,12.1517745 7.37617082,12.2357474 7.37617082,12.3393331 L7.37617082,12.9017159 C7.37617082,13.0053017 7.29219798,13.0892745 7.18861223,13.0892745 L5.3137294,13.0892745 C5.21014366,13.0892745 5.12617082,13.0053017 5.12617082,12.9017159 L5.12617082,12.3393331 C5.12617082,12.2357474 5.21014366,12.1517745 5.3137294,12.1517745 Z M8.5012294,12.1517745 L10.3761122,12.1517745 C10.479698,12.1517745 10.5636708,12.2357474 10.5636708,12.3393331 L10.5636708,12.9017159 C10.5636708,13.0053017 10.479698,13.0892745 10.3761122,13.0892745 L8.5012294,13.0892745 C8.39764366,13.0892745 8.31367082,13.0053017 8.31367082,12.9017159 L8.31367082,12.3393331 C8.31367082,12.2357474 8.39764366,12.1517745 8.5012294,12.1517745 Z M5.1262294,14.0267745 L9.43861223,14.0267745 C9.54219798,14.0267745 9.62617082,14.1107474 9.62617082,14.2143331 L9.62617082,14.7767159 C9.62617082,14.8803017 9.54219798,14.9642745 9.43861223,14.9642745 L5.1262294,14.9642745 C5.02264366,14.9642745 4.93867082,14.8803017 4.93867082,14.7767159 L4.93867082,14.2143331 C4.93867082,14.1107474 5.02264366,14.0267745 5.1262294,14.0267745 Z" id="形状结合备份" fill="url(#linearGradient-6)" transform="translate(11.0943, 10.0739) scale(-1, 1) translate(-11.0943, -10.0739)"></path>
            <g id="路径-6">
                <use fill="black" fill-opacity="1" filter="url(#filter-9)" xlink:href="#path-8"></use>
                <use fill="url(#linearGradient-7)" fill-rule="evenodd" xlink:href="#path-8"></use>
            </g>
            <g id="形状结合-+-矩形-+-形状结合蒙版" filter="url(#filter-10)" transform="translate(0, 1.0893)">
                <mask id="mask-13" fill="white">
                    <use xlink:href="#path-12"></use>
                </mask>
                <g id="蒙版">
                    <use fill="url(#radialGradient-11)" fill-rule="evenodd" xlink:href="#path-12"></use>
                    <use fill="black" fill-opacity="1" filter="url(#filter-14)" xlink:href="#path-12"></use>
                </g>
                <path d="M6,0 L6,12.4653048 C6.00001525,13.6262879 7.72076726,13.8279189 8.02012714,13.8596106 C8.97138874,13.9603158 9.15335338,13.9810304 10.054861,14.1366414 C10.9563686,14.2922523 11.3919718,14.7331402 11.5143981,14.9537562 C11.6368243,15.1743721 11.6864216,15.8568286 11.0888408,16.4113621 C10.4912599,16.9658955 9.43278335,17.6284674 7.26295111,17.6284674 L3,17.6284674 C1.34314575,17.6284674 0,16.2853216 0,14.6284674 L0,3 C0,1.34314575 1.34314575,0 3,0 L6,0 Z M5.8125,0.1875 L3,0.1875 C1.44669914,0.1875 0.1875,1.44669914 0.1875,3 L0.1875,14.6284674 C0.1875,16.1817682 1.44669914,17.4409674 3,17.4409674 L7.26295111,17.4409674 C9.05430305,17.4409674 10.1637634,17.0140077 10.961301,16.2739217 C11.3952616,15.871222 11.4947685,15.3048023 11.35045,15.0447357 C11.1900405,14.7556727 10.7160654,14.4410459 10.0229679,14.321409 C9.17447793,14.1749495 9.01330962,14.1533015 8.00038777,14.0460686 C7.85469047,14.0306444 7.71129445,14.0101604 7.54071162,13.9753593 C7.28806885,13.923817 7.0459477,13.852991 6.82423378,13.7584032 C6.19627816,13.4905043 5.81250792,13.0682156 5.8125,12.4653024 L5.8125,0.1875 Z" id="蒙版" fill="url(#linearGradient-15)" fill-rule="nonzero" mask="url(#mask-13)"></path>
                <path d="M2.8125,2.98427949e-13 L2.8125,2.98427949e-13 L2.8125,2.98427949e-13 L2.8125,17.625 C1.22982163,17.5194881 1.77635684e-15,16.2049485 1.33226763e-15,14.6187569 L-4.4408921e-16,3.00624307 C-4.4408921e-16,1.42005154 1.22982163,0.105511891 2.8125,2.98427949e-13 Z" id="矩形" fill-opacity="0.18" fill="url(#linearGradient-16)"></path>
            </g>
        </g>
        <g id="Guide/128"></g>
    </g>
</svg>