<?xml version="1.0" encoding="UTF-8"?>
<svg width="36px" height="36px" viewBox="0 0 36 36" version="1.1" xmlns="http://www.w3.org/2000/svg" xmlns:xlink="http://www.w3.org/1999/xlink">
    <!-- Generator: Sketch 56.2 (81672) - https://sketch.com -->
    <title>setting_press_light</title>
    <desc>Created with Sketch.</desc>
    <g id="page" stroke="none" stroke-width="1" fill="none" fill-rule="evenodd">
        <g id="按钮规范" transform="translate(-107.000000, -244.000000)" fill="#0081FF">
            <g id="批注" transform="translate(107.000000, 244.000000)">
                <g id="编组-10">
                    <path d="M26.0162827,25 L19.9960543,12.554243 L13.9831304,25 L15,25 L15,26 L12,26 L12,25 L13.0040571,25 L20,10 L26.9959429,25 L28,25 L28,26 L25,26 L25,25 L26.0162827,25 Z M7.97282159,25 L12.3078889,14.9558081 L12.7666667,13.9299187 L13.2254445,14.9558081 L14,16.9156278 L13.4568568,17.9103348 L12.3078889,15.3410866 L13.2254445,15.3410866 L11.1449261,19.993408 L12.892767,19.993408 L13.8000031,19.993408 L13.392767,20.9624001 L12.892767,20.9624001 L11.125,20.9624001 L10.7115928,20.9624001 L8.90597787,25 L10,25 L10,26 L7,26 L7,25 L7.97282159,25 Z" id="Combined-Shape" fill-rule="nonzero"></path>
                    <polygon id="Line" points="25.5328979 23 24.9012468 22 19.9642029 11.898736 14.9040585 22 14.3955078 23"></polygon>
                </g>
            </g>
        </g>
    </g>
</svg>