<?xml version="1.0" encoding="UTF-8"?>
<svg width="42px" height="36px" viewBox="0 0 42 36" version="1.1" xmlns="http://www.w3.org/2000/svg" xmlns:xlink="http://www.w3.org/1999/xlink">
    <!-- Generator: Sketch 56.2 (81672) - https://sketch.com -->
    <title>hand_normal_light</title>
    <desc>Created with Sketch.</desc>
    <g id="page" stroke="none" stroke-width="1" fill="none" fill-rule="evenodd">
        <g id="按钮规范" transform="translate(-253.000000, -49.000000)" stroke="#414D68">
            <g id="编组-15备份-2" transform="translate(253.000000, 49.000000)">
                <polyline id="Rectangle-179备份" transform="translate(33.089150, 18.178301) scale(-1, 1) rotate(-90.000000) translate(-33.089150, -18.178301) " points="34.1783009 20.3566017 32 18.1783009 34.1783009 16 34.1783009 16"></polyline>
                <path d="M14.01585,11.676919 C13.9494868,10.9385927 14.6432361,10.5231723 15.4482304,10.5008703 C16.1182712,10.4823071 16.7199313,10.7415748 16.9244354,11.2718642 C17.069962,10.7765658 17.6917976,10.6093326 18.4204516,10.6344345 C19.2497794,10.6630045 19.9135466,10.9439314 19.8681931,11.6613352 L19.7001405,12.9677903 C19.9730818,12.6257053 20.5649236,12.5952681 21.2157448,12.7257535 C22.0429218,12.8915971 22.6492142,13.2916836 22.4775288,13.979872 L21.4877302,18.1456613 C21.3760799,18.615564 21.3039215,19.2359269 21.2681034,19.9661542 C21.2289634,20.7641064 21.2352468,21.6214226 21.2694689,22.4386744 C21.2799055,22.6879091 21.2902911,22.8718925 21.2979711,22.9886327 C21.3448453,24.3774847 20.2659186,25.5 18.8798598,25.5 L14.1944714,25.492816 C13.6190104,25.3941995 13.1203307,24.9681209 12.5888298,24.2373399 C12.3478683,23.9060327 12.1016146,23.5149596 11.7998771,22.9957484 C11.6380706,22.7173215 11.0777281,21.7240789 11.0086903,21.6034343 C10.0892121,19.9966337 9.43788981,19.1028532 8.71143277,18.5894584 L8.41092538,18.3770867 L8.52434203,18.0270252 C8.57775331,17.8621707 8.68630691,17.6446041 8.87194429,17.4259115 C9.63479643,16.5272236 10.8276363,16.5559965 12.390056,17.8088792 L10.9558685,12.4780983 C10.8519094,11.8494997 11.4067886,11.4657694 12.1154956,11.3220218 C12.8361037,11.1758603 13.5087069,11.3137533 13.5884547,11.9119678 L14.1952418,14.3260329 L14.01585,11.676919 Z" id="path4236-1-58-5-6-copy备份-2" stroke-linejoin="round"></path>
            </g>
        </g>
    </g>
</svg>