<?xml version="1.0" encoding="UTF-8"?>
<svg width="36px" height="36px" viewBox="0 0 36 36" version="1.1" xmlns="http://www.w3.org/2000/svg" xmlns:xlink="http://www.w3.org/1999/xlink">
    <!-- Generator: Sketch 56.2 (81672) - https://sketch.com -->
    <title>comments_press_light</title>
    <desc>Created with Sketch.</desc>
    <g id="page" stroke="none" stroke-width="1" fill="none" fill-rule="evenodd">
        <g id="按钮规范" transform="translate(-726.000000, -239.000000)" fill="#0081FF">
            <g id="批注备份-4" transform="translate(726.000000, 239.000000)">
                <path d="M23.4137931,18.670949 L23.4137931,26 L11,26 L11,11.5483871 L17.6372866,11.5483871 C17.4937803,11.8761315 17.3833985,12.221622 17.3103636,12.5806452 L12.0344828,12.5806452 L12.0344828,24.9677419 L22.3793103,24.9677419 L22.3793103,18.7741935 C22.7335854,18.7741935 23.0795414,18.7386526 23.4137931,18.670949 Z M15.137931,16.7096774 L13.0689655,16.7096774 L13.0689655,15.6774194 L15.137931,15.6774194 L15.137931,16.7096774 Z M17.2068966,19.8064516 L13.0689655,19.8064516 L13.0689655,18.7741935 L17.2068966,18.7741935 L17.2068966,19.8064516 Z M20.3103448,22.9032258 L13.0689655,22.9032258 L13.0689655,21.8709677 L20.3103448,21.8709677 L20.3103448,22.9032258 Z M26,13.6129032 C26,15.6082546 24.378962,17.2258065 22.3793103,17.2258065 C20.3796587,17.2258065 18.7586207,15.6082546 18.7586207,13.6129032 C18.7586207,11.6175519 20.3796587,10 22.3793103,10 C24.378962,10 26,11.6175519 26,13.6129032 Z" id="批注备份"></path>
            </g>
        </g>
    </g>
</svg>