<?xml version="1.0" encoding="UTF-8"?>
<svg width="42px" height="36px" viewBox="0 0 42 36" version="1.1" xmlns="http://www.w3.org/2000/svg" xmlns:xlink="http://www.w3.org/1999/xlink">
    <!-- Generator: Sketch 56.2 (81672) - https://sketch.com -->
    <title>hand_press_light</title>
    <desc>Created with Sketch.</desc>
    <g id="page" stroke="none" stroke-width="1" fill="none" fill-rule="evenodd">
        <g id="按钮规范" transform="translate(-253.000000, -244.000000)">
            <g id="编组-18备份" transform="translate(253.000000, 244.000000)">
                <rect id="矩形备份-10" fill-opacity="0.1" fill="#000000" x="0" y="0" width="42" height="36" rx="8"></rect>
                <path d="M20.2858065,11.9881686 L19.5,16.5 C19.5977312,15.3823529 19.7643979,14.5490196 20,14 C20.1751311,13.5918948 20.5,12 21.3507853,12.2745098 C21.5356784,12.3341664 21.7121715,12.3754997 21.8802647,12.3985099 C22.6555269,12.6726271 23.1653649,13.1879001 22.9506808,14.0482163 L21.9523484,18.2489927 C21.8440202,18.7048128 21.7733916,19.3398491 21.7401085,20.099152 C21.7054437,20.8899755 21.7128995,21.7432569 21.7464685,22.5596686 C21.7571886,22.8203863 21.767819,23.012722 21.7762115,23.1455951 C21.8309508,24.7132427 20.6073575,26 19.0449789,26 L14.2610843,26 L14.1036739,25.9866119 C13.3834849,25.8632208 12.8050289,25.3690895 12.2081775,24.5486371 C11.9547011,24.2001997 11.6991774,23.7944951 11.3879742,23.259114 C11.2230753,22.9754288 10.656874,21.972023 10.5885031,21.8525703 C9.69227583,20.2867473 9.06162182,19.4215204 8.39795956,18.9526071 C8.06146846,18.7148579 7.91873062,18.2843046 8.04610066,17.8912628 C8.11617767,17.6750172 8.25006829,17.4067286 8.47947177,17.1365366 C9.2385448,16.2424985 10.3246249,16.0961933 11.6396663,16.8076317 L10.4830308,12.5038266 C10.3240191,11.5425593 11.07384,11.0241305 11.9939881,10.8375374 C12.4004106,10.7551207 12.9242891,10.8311781 13.5656234,11.0657097 C13.5820365,11.076198 13.598561,11.0869722 13.6151832,11.0980392 C13.9293194,11.3071895 14.2303665,13.2679739 14.5183246,16.9803922 C14.3089005,12.7189542 14.2958115,10.5098039 14.4790576,10.3529412 C14.5023715,10.3329839 14.5244142,10.3138731 14.5451857,10.2956085 C14.8534942,10.1070556 15.1479762,10.0088923 15.4286319,10.0011185 C15.8102472,9.99054839 16.1807359,10.0548238 16.4974217,10.1969132 C16.5150537,10.2094278 16.5359015,10.2222224 16.5602094,10.2352941 C16.9005236,10.4183007 17.0379581,12.6666667 16.9725131,16.9803922 C17.0903141,13.2679739 17.2539267,11.1895425 17.4633508,10.745098 C17.6727749,10.3006536 18.104712,10.1045752 18.7591623,10.1568627 C18.7588132,10.1567502 18.7584641,10.1566378 18.758115,10.1565253 C19.6806403,10.2521426 20.3914446,10.6538812 20.3272401,11.6641556 L20.2858065,11.9881686 Z" id="形状结合" fill="#0081FF" fill-rule="nonzero"></path>
                <polyline id="Rectangle-179备份-4" stroke="#0081FF" transform="translate(33.089150, 18.178301) scale(-1, 1) rotate(-90.000000) translate(-33.089150, -18.178301) " points="34.1783009 20.3566017 32 18.1783009 34.1783009 16 34.1783009 16"></polyline>
            </g>
        </g>
    </g>
</svg>