<?xml version="1.0" encoding="UTF-8"?>
<svg width="36px" height="36px" viewBox="0 0 36 36" version="1.1" xmlns="http://www.w3.org/2000/svg" xmlns:xlink="http://www.w3.org/1999/xlink">
    <!-- Generator: Sketch 56.2 (81672) - https://sketch.com -->
    <title>thumbnail_checked_light</title>
    <desc>Created with Sketch.</desc>
    <g id="page" stroke="none" stroke-width="1" fill="none" fill-rule="evenodd">
        <g id="按钮规范" transform="translate(-35.000000, -318.000000)" fill="#FFFFFF" fill-rule="nonzero">
            <g id="显示缩略图" transform="translate(35.000000, 318.000000)">
                <g id="Combined-Shape-3">
                    <path d="M27,10 L27,26 L9,26 L9,10 L27,10 Z M10,11 L10,25 L16,25 L16,11 L10,11 Z M15,12 L15,17 L11,17 L11,12 L15,12 Z M15,19 L15,24 L11,24 L11,19 L15,19 Z M19,22 L19,23 L24,23 L24,22 L19,22 Z M19,19 L19,20 L24,20 L24,19 L19,19 Z M19,13 L19,14 L24,14 L24,13 L19,13 Z M19,16 L19,17 L24,17 L24,16 L19,16 Z" id="Combined-Shape"></path>
                </g>
            </g>
        </g>
    </g>
</svg>