<?xml version="1.0" encoding="UTF-8"?>
<svg width="46px" height="46px" viewBox="0 0 46 46" version="1.1" xmlns="http://www.w3.org/2000/svg" xmlns:xlink="http://www.w3.org/1999/xlink">
    <!-- Generator: Sketch 56.2 (81672) - https://sketch.com -->
    <title>编组 11</title>
    <desc>Created with Sketch.</desc>
    <defs>
        <circle id="path-1" cx="15" cy="15" r="15"></circle>
        <filter x="-33.3%" y="-26.7%" width="166.7%" height="166.7%" filterUnits="objectBoundingBox" id="filter-2">
            <feOffset dx="0" dy="2" in="SourceAlpha" result="shadowOffsetOuter1"></feOffset>
            <feGaussianBlur stdDeviation="3" in="shadowOffsetOuter1" result="shadowBlurOuter1"></feGaussianBlur>
            <feColorMatrix values="0 0 0 0 0.521512681   0 0 0 0 0.29198328   0 0 0 0 0  0 0 0 0.2 0" type="matrix" in="shadowBlurOuter1"></feColorMatrix>
        </filter>
        <circle id="path-3" cx="23" cy="23" r="17"></circle>
        <filter x="-26.5%" y="-20.6%" width="152.9%" height="152.9%" filterUnits="objectBoundingBox" id="filter-4">
            <feMorphology radius="2" operator="dilate" in="SourceAlpha" result="shadowSpreadOuter1"></feMorphology>
            <feOffset dx="0" dy="2" in="shadowSpreadOuter1" result="shadowOffsetOuter1"></feOffset>
            <feGaussianBlur stdDeviation="2" in="shadowOffsetOuter1" result="shadowBlurOuter1"></feGaussianBlur>
            <feComposite in="shadowBlurOuter1" in2="SourceAlpha" operator="out" result="shadowBlurOuter1"></feComposite>
            <feColorMatrix values="0 0 0 0 0   0 0 0 0 0   0 0 0 0 0  0 0 0 0.05 0" type="matrix" in="shadowBlurOuter1"></feColorMatrix>
        </filter>
    </defs>
    <g id="page" stroke="none" stroke-width="1" fill="none" fill-rule="evenodd">
        <g id="按钮规范" transform="translate(-874.000000, -405.000000)">
            <g id="编组-11" transform="translate(874.000000, 405.000000)">
                <g id="编组备份-3" transform="translate(8.000000, 8.000000)">
                    <g id="Oval-3">
                        <use fill="black" fill-opacity="1" filter="url(#filter-2)" xlink:href="#path-1"></use>
                        <use fill="#C2752B" fill-rule="evenodd" xlink:href="#path-1"></use>
                    </g>
                    <path d="M21,15.6585886 L21,24 L7,24 L7,7 L13.8026932,7 C13.6197688,7.31622176 13.4648756,7.65068765 13.3414114,8 L8,8 L8,23 L20,23 L20,15.9170416 C20.3441518,15.8593038 20.6783692,15.7722688 21,15.6585886 Z M13.3414114,12 L9,12 L9,11 L13.0829584,11 C13.1406962,11.3441518 13.2277312,11.6783692 13.3414114,12 Z M15.6822049,15 L9,15 L9,14 L14.527787,14 C14.8679898,14.3801046 15.2559383,14.7165804 15.6822049,15 Z M19,18 L9,18 L9,17 L19,17 L19,18 Z M19,21 L9,21 L9,20 L19,20 L19,21 Z M23.5,10 C23.5,12.4852814 21.4852814,14.5 19,14.5 C16.5147186,14.5 14.5,12.4852814 14.5,10 C14.5,7.51471863 16.5147186,5.5 19,5.5 C21.4852814,5.5 23.5,7.51471863 23.5,10 Z M15.5,10 C15.5,11.9329966 17.0670034,13.5 19,13.5 C20.9329966,13.5 22.5,11.9329966 22.5,10 C22.5,8.06700338 20.9329966,6.5 19,6.5 C17.0670034,6.5 15.5,8.06700338 15.5,10 Z" id="批注" fill="#FFFFFF" fill-rule="nonzero"></path>
                </g>
                <g id="椭圆形备份">
                    <use fill="black" fill-opacity="1" filter="url(#filter-4)" xlink:href="#path-3"></use>
                    <circle stroke="#0081FF" stroke-width="2" fill-opacity="0" fill="#FFFFFF" fill-rule="evenodd" cx="23" cy="23" r="18"></circle>
                </g>
            </g>
        </g>
    </g>
</svg>