<?xml version="1.0" encoding="UTF-8"?>
<svg width="96px" height="25px" viewBox="0 0 96 25" version="1.1" xmlns="http://www.w3.org/2000/svg" xmlns:xlink="http://www.w3.org/1999/xlink">
    <!-- Generator: Sketch 56.2 (81672) - https://sketch.com -->
    <title>deepin_logo 2</title>
    <desc>Created with Sketch.</desc>
    <g id="page" stroke="none" stroke-width="1" fill="none" fill-rule="evenodd">
        <g id="12-关于" transform="translate(-493.000000, -388.000000)">
            <g id="编组" transform="translate(181.000000, 101.000000)">
                <g id="编组-2" transform="translate(178.000000, 119.000000)">
                    <g id="deepin_logo-2" transform="translate(134.000000, 168.000000)">
                        <g id="deepin_logo" transform="translate(0.000000, -0.000000)">
                            <g>
                                <path d="M36.0634182,18.8571429 C36.6638545,18.8571429 36.6673455,18.3297143 36.6667636,18.2765714 C36.6661818,18.0782857 36.6632727,16.78 36.6632727,16.5805714 C36.6632727,16.0091429 36.0727273,16 36.0727273,16 C36.0727273,16 24.5847273,15.9908571 23.8452364,15.9908571 C22.6728727,15.9908571 22.6909091,14.8765714 22.6909091,14.8765714 C22.6757818,14.804 22.6914909,13.7142857 22.6909091,13.7142857 L34.3319273,13.7142857 C37.5633455,13.7142857 37.2363636,11.4285714 37.2363636,11.4285714 L37.2363636,9.16342857 C37.2363636,9.16342857 37.5517091,5.14285714 33.1729455,5.14285714 L23.3658182,5.14285714 C18.9090909,5.14285714 19.2110545,9.11028571 19.2110545,9.11028571 C19.2110545,11.2582857 19.2122182,12.0262857 19.2122182,14.8525714 C19.2122182,18.8571429 23.2907636,18.8388571 23.2907636,18.8388571 M33.1735273,10.8651429 C32.8017455,10.8651429 22.6909091,10.8662857 22.6909091,10.8662857 C22.6909091,10.8662857 22.6932364,9.38628571 22.6932364,9.16057143 C22.6932364,8.58057143 23.2546909,8.01085714 23.8638545,8.00914286 C24.4288,8.00685714 32.0238545,8.00914286 32.6091636,8.00914286 C33.1362909,8.00914286 33.7483636,8.58914286 33.7454545,9.152 C33.7431273,9.59714286 33.7361455,9.86971429 33.7361455,10.2948571 C33.7361455,10.2948571 33.7361455,10.8651429 33.1735273,10.8651429" id="Fill-1" fill="#3EA9FD"></path>
                                <path d="M17.4487273,0 C17.1991273,0.000571428571 15.3780364,0.000571428571 15.1290182,0 C15.1290182,0 14.5460364,0 14.5460364,0.589142857 C14.5460364,0.636 14.5437091,5.14285714 14.5437091,5.14285714 C12.0942545,5.14228571 9.55752727,5.144 7.008,5.14285714 C1.53250909,5.14114286 0.568436364,9.79828571 0.573672727,12.008 C0.579490909,14.2177143 1.55810909,18.848 7.09469091,18.8422857 C12.6318545,18.8371429 12.7866182,18.8491429 15.1307636,18.8491429 C18.0334545,18.8491429 18.0363636,16.0091429 18.0363636,16.0091429 L18.0363636,0.571428571 C18.0363636,0 17.4487273,0 17.4487273,0 L17.4487273,0 Z M14.5361455,15.4428571 C14.5361455,15.4428571 14.5454545,16 13.9543273,16 C13.3201455,16 10.2231273,16.0068571 8.32058182,16.0011429 C6.41687273,15.996 4.0832,15.5851429 4.08203636,12.0445714 C4.08029091,8.50342857 6.67403636,8.01314286 8.29323636,8.01314286 C9.91127273,8.01314286 14.5338182,8.01942857 14.5338182,8.01942857 C14.5338182,8.01942857 14.5361455,14.9354286 14.5361455,15.4428571 L14.5361455,15.4428571 Z" id="Fill-2" fill="#3EA9FD"></path>
                                <path d="M79.1272727,3.42857143 L76.8,3.42857143 C76.4788364,3.42857143 76.2181818,3.17257143 76.2181818,2.85714286 L76.2181818,0.571428571 C76.2181818,0.256 76.4788364,0 76.8,0 L79.1272727,0 C79.4484364,0 79.7090909,0.256 79.7090909,0.571428571 L79.7090909,2.85714286 C79.7090909,3.17257143 79.4484364,3.42857143 79.1272727,3.42857143" id="Fill-3" fill="#3EA9FD"></path>
                                <path d="M79.1272727,18.8571429 L76.8,18.8571429 C76.4788364,18.8571429 76.2181818,18.6011429 76.2181818,18.2857143 L76.2181818,5.71428571 C76.2181818,5.39885714 76.4788364,5.14285714 76.8,5.14285714 L79.1272727,5.14285714 C79.4484364,5.14285714 79.7090909,5.39885714 79.7090909,5.71428571 L79.7090909,18.2857143 C79.7090909,18.6011429 79.4484364,18.8571429 79.1272727,18.8571429" id="Fill-4" fill="#3EA9FD"></path>
                                <path d="M90.1818182,5.14685714 C85.9077818,5.14114286 80.8727273,5.14514286 80.8727273,5.14514286 L80.8727273,18.2765714 C80.8727273,18.536 81.0414545,18.9182857 81.5691636,18.852 C82.1381818,18.8497143 83.0324364,18.8468571 83.6014545,18.8451429 C84.4032,18.9571429 84.3799273,18.268 84.3799273,18.268 L84.3630545,8.00914286 C84.3630545,8.00914286 88.6196364,8.00457143 90.1771636,8.00457143 C90.2743273,8.00457143 92.5271273,8.04742857 92.5271273,10.8571429 L92.5102545,18.2862857 C92.5096727,18.6028571 92.7703273,18.8594286 93.0926545,18.8588571 L95.4187636,18.8577143 C95.7399273,18.8571429 96,18.6017143 96,18.2862857 L96,10.5971429 C96,7.42971429 94.4558545,5.15257143 90.1818182,5.14685714" id="Fill-5" fill="#3EA9FD"></path>
                                <path d="M14.5349818,15.4725714 C14.5274182,15.5857143 14.4645818,16 13.9543273,16 C13.3201455,16 10.2231273,16.0068571 8.32058182,16.0011429 C6.41687273,15.996 4.08203636,15.5851429 4.08203636,12.0445714 C4.08203636,8.37142857 6.67403636,8.01314286 8.29323636,8.01314286 C8.29323636,8.01314286 -1.06821818,7.80971429 1.50050909,15.5742857 C2.26385455,17.652 4.34443636,18.8451429 7.09469091,18.8422857 C10.4680727,18.8394286 10.0968727,18.8422857 11.1866182,18.8457143 C13.0705455,18.8457143 14.5349818,17.3154286 14.5349818,15.4725714" id="Fill-6" fill="#2659B8"></path>
                                <path d="M58.1835636,23.992 C58.4331636,23.9914286 60.2525091,23.9914286 60.5015273,23.992 C60.5015273,23.992 61.0827636,23.992 61.0827636,23.4028571 C61.0827636,23.356 61.0850909,18.8491429 61.0850909,18.8491429 C63.5345455,18.8497143 66.0712727,18.8485714 68.6202182,18.8491429 C74.0957091,18.8514286 75.0597818,14.1942857 75.0545455,11.984 C75.0487273,9.77428571 74.0701091,5.144 68.5335273,5.14971429 C62.9963636,5.15485714 62.8456727,5.14285714 60.5021091,5.14285714 C57.5988364,5.14285714 57.6,7.98342857 57.6,7.98342857 L57.6,23.4205714 C57.6,23.992 58.1835636,23.992 58.1835636,23.992 L58.1835636,23.992 Z M61.0914909,8.54971429 C61.0914909,8.54971429 61.0827636,7.992 61.6733091,7.992 C62.3074909,7.992 65.4045091,7.98514286 67.3076364,7.99085714 C69.2113455,7.99657143 71.5450182,8.40685714 71.5461818,11.9474286 C71.5479273,15.4885714 68.9541818,15.9788571 67.3349818,15.9788571 C65.7169455,15.9788571 61.0944,15.9731429 61.0944,15.9731429 C61.0944,15.9731429 61.0914909,9.05657143 61.0914909,8.54971429 L61.0914909,8.54971429 Z" id="Fill-7" fill="#3EA9FD"></path>
                                <path d="M36.0727273,16 C36.0727273,16 25.3166545,15.9914286 23.8818909,15.9914286 C22.6833455,15.9914286 22.6909091,14.8765714 22.6909091,14.8765714 C22.6909091,14.8765714 22.4232727,18.8565714 25.9514182,18.8565714 C25.9514182,18.8565714 35.4356364,18.8571429 36.0634182,18.8571429 C36.6912,18.8571429 36.6545455,18.2857143 36.6545455,18.2857143 L36.6545455,16.5805714 C36.6545455,16.0268571 36.0727273,16 36.0727273,16" id="Fill-8" fill="#2659B8"></path>
                                <path d="M55.2634182,18.8571429 C55.8638545,18.8571429 55.8673455,18.3297143 55.8667636,18.2765714 C55.8661818,18.0782857 55.8632727,16.78 55.8632727,16.5805714 C55.8632727,16.0091429 55.2727273,16 55.2727273,16 C55.2727273,16 43.7847273,15.9908571 43.0452364,15.9908571 C41.8728727,15.9908571 41.8909091,14.8765714 41.8909091,14.8765714 C41.8757818,14.804 41.8914909,13.7142857 41.8909091,13.7142857 L53.5319273,13.7142857 C56.7633455,13.7142857 56.4363636,11.4285714 56.4363636,11.4285714 L56.4363636,9.16342857 C56.4363636,9.16342857 56.7517091,5.14285714 52.3729455,5.14285714 L42.5658182,5.14285714 C38.1090909,5.14285714 38.4110545,9.11028571 38.4110545,9.11028571 C38.4110545,11.2582857 38.4122182,12.0262857 38.4122182,14.8525714 C38.4122182,18.8571429 42.4907636,18.8388571 42.4907636,18.8388571 M52.3735273,10.8651429 C52.0017455,10.8651429 41.8909091,10.8662857 41.8909091,10.8662857 C41.8909091,10.8662857 41.8932364,9.38628571 41.8932364,9.16057143 C41.8932364,8.58057143 42.4546909,8.01085714 43.0638545,8.00914286 C43.6288,8.00685714 51.2238545,8.00914286 51.8091636,8.00914286 C52.3362909,8.00914286 52.9483636,8.58914286 52.9454545,9.152 C52.9431273,9.59714286 52.9361455,9.86971429 52.9361455,10.2948571 C52.9361455,10.2948571 52.9361455,10.8651429 52.3735273,10.8651429" id="Fill-9" fill="#3EA9FD"></path>
                                <path d="M55.2727273,16 C55.2727273,16 44.5166545,15.9914286 43.0818909,15.9914286 C41.8833455,15.9914286 41.8909091,14.8765714 41.8909091,14.8765714 C41.8909091,14.8765714 41.6232727,18.8565714 45.1514182,18.8565714 C45.1514182,18.8565714 54.6356364,18.8571429 55.2634182,18.8571429 C55.8906182,18.8571429 55.8545455,18.2857143 55.8545455,18.2857143 L55.8545455,16.5805714 C55.8545455,16.0268571 55.2727273,16 55.2727273,16" id="Fill-10" fill="#2659B8"></path>
                                <path d="M73.7489455,13.1845714 C73.1543273,10.0177143 70.2202182,8.66285714 70.2202182,8.66285714 L70.176,8.67085714 C70.9777455,9.22171429 71.5456,10.204 71.5461818,11.9474286 C71.5479273,15.4885714 68.9541818,15.9788571 67.3349818,15.9788571 C65.7169455,15.9788571 61.0944,15.9731429 61.0944,15.9731429 C61.0944,15.9731429 61.0932364,12.5714286 61.0920727,10.2857143 L61.0909091,10.2857143 L61.0909091,18.8491429 C63.5386182,18.8497143 68.8645818,18.8411429 68.9844364,18.8354286 L68.9821091,18.84 C70.1730909,18.8411429 71.2610909,18.4005714 71.2610909,18.4005714 C73.8845091,16.7542857 73.9944727,14.4931429 73.7489455,13.1845714" id="Fill-11" fill="#2659B8"></path>
                                <path d="M79.1272727,5.14285714 L76.8,5.14285714 C76.8,5.14285714 79.7090909,7.59028571 79.7090909,12.6154286 L79.7090909,5.71428571 C79.7090909,5.39885714 79.4484364,5.14285714 79.1272727,5.14285714" id="Fill-12" fill="#2659B8"></path>
                                <path d="M76.8,3.42857143 L79.1272727,3.42857143 C79.1982545,3.42857143 79.2645818,3.41142857 79.3274182,3.38857143 C76.6074182,3.05771429 76.2181818,0.642857143 76.2181818,0.642857143 L76.2181818,2.85714286 C76.2181818,3.17257143 76.4788364,3.42857143 76.8,3.42857143" id="Fill-13" fill="#2659B8"></path>
                                <path d="M90.4157091,8.02514286 L90.4157091,8.02514286 C91.0149818,8.11085714 92.5271273,8.55371429 92.5271273,10.8571429 L92.5102545,18.2862857 C92.5096727,18.6028571 92.7703273,18.8594286 93.0926545,18.8588571 L95.4187636,18.8577143 C95.7399273,18.8571429 96,18.6017143 96,18.2862857 L96,12.2171429 C96,8.50914286 90.4157091,8.02514286 90.4157091,8.02514286" id="Fill-14" fill="#2659B8"></path>
                            </g>
                        </g>
                    </g>
                </g>
            </g>
        </g>
    </g>
</svg>