<?xml version="1.0" encoding="UTF-8"?>
<svg width="32px" height="32px" viewBox="0 0 32 32" version="1.1" xmlns="http://www.w3.org/2000/svg" xmlns:xlink="http://www.w3.org/1999/xlink">
    <!-- Generator: Sketch 56.2 (81672) - https://sketch.com -->
    <title>logo</title>
    <desc>Created with Sketch.</desc>
    <defs>
        <filter x="-16.7%" y="-16.7%" width="133.3%" height="133.3%" filterUnits="objectBoundingBox" id="filter-1">
            <feOffset dx="0" dy="1" in="SourceAlpha" result="shadowOffsetOuter1"></feOffset>
            <feGaussianBlur stdDeviation="0.5" in="shadowOffsetOuter1" result="shadowBlurOuter1"></feGaussianBlur>
            <feColorMatrix values="0 0 0 0 0   0 0 0 0 0   0 0 0 0 0  0 0 0 0.2 0" type="matrix" in="shadowBlurOuter1" result="shadowMatrixOuter1"></feColorMatrix>
            <feMerge>
                <feMergeNode in="shadowMatrixOuter1"></feMergeNode>
                <feMergeNode in="SourceGraphic"></feMergeNode>
            </feMerge>
        </filter>
    </defs>
    <g id="page" stroke="none" stroke-width="1" fill="none" fill-rule="evenodd">
        <g id="1-初次使用文档查看器" transform="translate(-51.000000, -50.000000)">
            <g id="logo-2" transform="translate(51.000000, 50.000000)">
                <g id="logo" transform="translate(4.000000, 4.000000)">
                    <g filter="url(#filter-1)">
                        <rect id="Rectangle" fill-opacity="0" fill="#D8D8D8" x="0" y="0" width="24" height="24"></rect>
                        <g id="Group" transform="translate(1.000000, 3.000000)">
                            <path d="M21.3714286,17.6 L0.628571429,17.6 C0.2816,17.6 0,17.3184 0,16.9714286 L0,0.628571429 C0,0.2816 0.2816,0 0.628571429,0 L21.3714286,0 C21.7184,0 22,0.2816 22,0.628571429 L22,16.9714286 C22,17.3184 21.7184,17.6 21.3714286,17.6 L21.3714286,17.6 Z" id="Shape" fill="#7C40A4"></path>
                            <rect id="Rectangle-path" fill="#CDCDCD" x="0.628571429" y="0.628571429" width="20.7428571" height="16.3428571"></rect>
                            <g transform="translate(1.885714, 0.628571)" fill="#F7F8F8" id="Rectangle-path">
                                <rect x="0" y="0" width="8.8" height="16.3428571"></rect>
                                <rect x="9.42857143" y="0" width="8.8" height="16.3428571"></rect>
                            </g>
                            <g transform="translate(3.142857, 3.771429)" fill="#DEDEDE" id="Rectangle-path">
                                <rect x="0" y="0" width="3.77142857" height="1"></rect>
                                <rect x="0" y="2.51428571" width="6.91428571" height="1"></rect>
                                <rect x="8.8" y="0" width="6.91428571" height="1"></rect>
                                <rect x="8.8" y="2.51428571" width="6.91428571" height="1"></rect>
                                <rect x="8.8" y="5.02857143" width="6.91428571" height="1"></rect>
                                <rect x="8.8" y="7.54285714" width="6.91428571" height="1"></rect>
                                <rect x="0" y="5.02857143" width="6.91428571" height="1"></rect>
                                <rect x="0" y="7.54285714" width="6.91428571" height="1"></rect>
                                <rect x="0" y="10.0571429" width="6.91428571" height="1"></rect>
                                <rect x="12.5714286" y="10.0571429" width="3.14285714" height="1"></rect>
                            </g>
                        </g>
                    </g>
                </g>
            </g>
        </g>
    </g>
</svg>