<?xml version="1.0" encoding="UTF-8"?>
<svg width="36px" height="36px" viewBox="0 0 36 36" version="1.1" xmlns="http://www.w3.org/2000/svg" xmlns:xlink="http://www.w3.org/1999/xlink">
    <!-- Generator: Sketch 56.2 (81672) - https://sketch.com -->
    <title>magnifier_press_light</title>
    <desc>Created with Sketch.</desc>
    <g id="page" stroke="none" stroke-width="1" fill="none" fill-rule="evenodd">
        <g id="按钮规范" transform="translate(-334.000000, -244.000000)" stroke="#0081FF">
            <g id="编组备份-5" transform="translate(334.000000, 244.000000)">
                <path d="M18,22.7494399 L18,25.741209 L18,22.7494399 Z M18,22.7494399 L18,22.5164618 L18.4648001,22.4836585 C21.8541286,22.2444568 24.5,19.4169027 24.5,16 C24.5,12.4101491 21.5898509,9.5 18,9.5 C14.4101491,9.5 11.5,12.4101491 11.5,16 C11.5,19.4169027 14.1458714,22.2444568 17.5351999,22.4836585 L18,22.5164618 L18,22.7494399 Z" id="形状结合" transform="translate(18.000000, 18.750000) rotate(-45.000000) translate(-18.000000, -18.750000) "></path>
                <path d="M16,15.25 L16,14 L15.5,14.5 L16.5,14.5 L16,14 L16,15.25 Z M17.75,17 L19,17 L18.5,16.5 L18.5,17.5 L19,17 L17.75,17 Z M16,18.75 L16,20 L16.5,19.5 L15.5,19.5 L16,20 L16,18.75 Z M14.25,17 L13,17 L13.5,17.5 L13.5,16.5 L13,17 L14.25,17 Z" id="形状结合" fill="#D8D8D8"></path>
            </g>
        </g>
    </g>
</svg>